<svg xmlns="http://www.w3.org/2000/svg" width="231.225" height="264.257" viewBox="0 0 231.225 264.257">
   <path id="Icon_awesome-database" data-name="Icon awesome-database"
      d="M231.225,37.751V61.345c0,20.793-51.785,37.751-115.613,37.751S0,82.138,0,61.345V37.751C0,16.958,51.785,0,115.613,0S231.225,16.958,231.225,37.751Zm0,53.087v53.087c0,20.793-51.785,37.751-115.613,37.751S0,164.718,0,143.926V90.838c24.839,17.106,70.3,25.069,115.613,25.069S206.386,107.944,231.225,90.838Zm0,82.58v53.087c0,20.793-51.785,37.751-115.613,37.751S0,247.3,0,226.506V173.419c24.839,17.106,70.3,25.069,115.613,25.069S206.386,190.525,231.225,173.419Z"
      fill="#3e3c75" />
</svg>